<svg xmlns="http://www.w3.org/2000/svg" width="1200" height="630" viewBox="0 0 1200 630">
  <defs>
    <linearGradient id="bg" x1="0" x2="1" y1="0" y2="1">
      <stop stop-color="#070A12"/>
      <stop offset="1" stop-color="#101827"/>
    </linearGradient>
    <linearGradient id="accent" x1="0" x2="1">
      <stop stop-color="#7C3AED"/>
      <stop offset="1" stop-color="#06B6D4"/>
    </linearGradient>
    <pattern id="grid" width="48" height="48" patternUnits="userSpaceOnUse">
      <path d="M48 0H0V48" fill="none" stroke="#94A3B8" stroke-opacity=".08"/>
    </pattern>
  </defs>
  <rect width="1200" height="630" fill="url(#bg)"/>
  <rect width="1200" height="630" fill="url(#grid)"/>
  <circle cx="1030" cy="90" r="250" fill="#7C3AED" opacity=".12"/>
  <circle cx="120" cy="580" r="280" fill="#06B6D4" opacity=".08"/>
  <g transform="translate(78 74)">
    <rect width="84" height="84" rx="22" fill="#151F32" stroke="#7C3AED" stroke-opacity=".7"/>
    <path d="M42 16 67 27v17c0 16-10.5 26.2-25 31C27.5 70.2 17 60 17 44V27L42 16Z" fill="url(#accent)" opacity=".22" stroke="url(#accent)" stroke-width="2"/>
    <path d="m30 43 9 9 17-20" fill="none" stroke="#F8FAFC" stroke-width="5" stroke-linecap="round" stroke-linejoin="round"/>
    <circle cx="72" cy="16" r="7" fill="#22C55E"/>
  </g>
  <text x="78" y="220" fill="#A5F3FC" font-family="monospace" font-size="22" font-weight="700" letter-spacing="3">HUMAN-IN-THE-LOOP FUNDING OPERATIONS</text>
  <text x="78" y="305" fill="#F8FAFC" font-family="Arial, sans-serif" font-size="66" font-weight="900">Build AI Funding Workflows</text>
  <text x="78" y="380" fill="#F8FAFC" font-family="Arial, sans-serif" font-size="66" font-weight="900">That Know Where to Stop</text>
  <text x="78" y="447" fill="#94A3B8" font-family="Arial, sans-serif" font-size="28">Risk zones • Human review • Escalation • Audit logs • n8n + CRM routing</text>
  <g transform="translate(78 500)">
    <rect width="210" height="54" rx="27" fill="#22C55E" fill-opacity=".14" stroke="#22C55E" stroke-opacity=".35"/>
    <text x="34" y="35" fill="#86EFAC" font-family="monospace" font-size="20" font-weight="700">GREEN / AUTOMATE</text>
    <rect x="230" width="210" height="54" rx="27" fill="#FBBF24" fill-opacity=".14" stroke="#FBBF24" stroke-opacity=".35"/>
    <text x="265" y="35" fill="#FDE68A" font-family="monospace" font-size="20" font-weight="700">YELLOW / REVIEW</text>
    <rect x="460" width="185" height="54" rx="27" fill="#FB5F5F" fill-opacity=".14" stroke="#FB5F5F" stroke-opacity=".35"/>
    <text x="504" y="35" fill="#FECACA" font-family="monospace" font-size="20" font-weight="700">RED / STOP</text>
  </g>
</svg>
